<svg width="123" height="121" viewBox="0 0 123 121" fill="none" xmlns="http://www.w3.org/2000/svg">
<g clip-path="url(#clip0_113_33)">
<path d="M47.9986 120.531C107.914 124.818 109.061 98.6918 116.497 83.6743C129.218 57.9845 122.586 37.5756 102.614 15.7379C84.1934 -4.40422 66.2604 -4.18953 28.0275 10.5722C8.5156 18.1064 -6.25406 41.1828 2.65991 73.1591C2.65991 73.1591 11.0123 118.313 47.9986 120.531Z" fill="#83AA7D"/>
<path d="M13.6474 60.3964C13.7058 59.4533 14.5241 58.7297 15.4673 58.7866C16.4112 58.8442 17.1354 59.6618 17.0771 60.605C17.0201 61.5467 16.2018 62.2718 15.2579 62.2141C14.3154 62.1558 13.5911 61.3382 13.6474 60.3964Z" fill="white"/>
<path d="M109.344 60.3008C109.453 61.2391 108.775 62.0965 107.836 62.2056C106.896 62.3153 106.038 61.6383 105.929 60.7C105.819 59.7616 106.498 58.9042 107.436 58.7945C108.375 58.6854 109.234 59.3624 109.344 60.3008Z" fill="white"/>
<path d="M51.2659 48.1977C49.7728 47.1331 48.7129 45.6214 48.2234 43.8784C51.9346 43.6637 55.323 46.0809 56.3349 49.6628C54.5322 49.7698 52.759 49.2615 51.2659 48.1977ZM67.7738 46.937C68.8152 46.1941 70.0371 45.8162 71.294 45.8388C70.4895 48.2917 68.1644 49.9523 65.5866 49.9097C65.9766 48.7149 66.7331 47.6784 67.7738 46.937ZM82.9258 59.6663H61.7135V59.4098C61.7135 59.3933 61.7128 59.3768 61.7128 59.3604C61.7739 56.4246 62.9018 53.6562 64.8995 51.5217C65.1617 51.5498 65.4233 51.5642 65.6821 51.5642C69.3046 51.5642 72.5146 48.9405 73.1359 45.2455C73.1908 44.9183 73.0466 44.5774 72.7411 44.3942C72.6533 44.3414 72.5537 44.3085 72.4528 44.292C70.4627 43.9573 68.4623 44.4189 66.8189 45.5919C65.2317 46.723 64.1629 48.3877 63.7874 50.2939C62.5229 51.6197 61.557 53.1651 60.9254 54.8422C60.3247 53.1686 58.1575 50.2568 58.1555 50.2431C57.2754 45.0075 52.3087 41.466 47.0832 42.3481C46.8683 42.3838 46.6754 42.5052 46.5484 42.6836C46.4214 42.8626 46.3706 43.0834 46.407 43.3002C46.8333 45.8367 48.2193 48.0543 50.311 49.5455C51.9565 50.7184 53.8828 51.3317 55.8626 51.3317C56.1846 51.3317 56.5086 51.3131 56.8319 51.2802C58.9195 53.4848 60.0653 56.3595 60.0653 59.4098V59.6663H40.0749C39.6362 59.6663 39.2525 59.9983 39.2244 60.438C39.1935 60.9188 39.5731 61.3201 40.0468 61.3201H60.0653C60.0653 61.8338 59.974 62.3434 59.7968 62.8257C59.5209 63.5747 59.0836 64.7476 58.7328 65.6194C58.4239 66.3849 57.8486 67.0125 57.11 67.3802C55.6629 68.1004 53.1332 68.8302 50.4573 67.1552C50.0577 66.9041 49.5257 67.0393 49.2957 67.4604C49.0836 67.848 49.2312 68.3384 49.606 68.5716C50.9556 69.4112 52.4096 69.8351 53.9013 69.8351C54.5199 69.8351 55.1452 69.7617 55.7727 69.6149C54.8562 70.3756 53.8142 70.9929 52.6753 71.4333C50.6007 72.2351 48.8049 73.5507 47.4292 75.2189C46.0116 75.3835 41.0607 76.2231 40.2788 79.9463C40.1847 80.3921 40.4696 80.8311 40.9158 80.9251C40.9728 80.9367 41.0305 80.9429 41.0861 80.9429C41.4685 80.9429 41.811 80.6761 41.8927 80.2872C42.1501 79.0628 43.1977 78.1135 45.0052 77.4666C45.389 77.3295 45.7686 77.2211 46.1208 77.1353C45.5544 78.1505 45.124 79.2514 44.8473 80.4113L44.362 82.4554C44.2563 82.8998 44.5302 83.345 44.973 83.4506C45.0375 83.4657 45.102 83.4739 45.1659 83.4739C45.5393 83.4739 45.8771 83.2181 45.9677 82.8381L46.453 80.7947C47.1567 77.8343 49.0273 75.3211 51.5927 73.7935C51.3257 75.3355 51.4293 77.6045 53.2444 80.0293C53.4064 80.246 53.6542 80.3599 53.9055 80.3599C54.0936 80.3599 54.2844 80.2954 54.4409 80.1609C54.7725 79.8763 54.8137 79.3708 54.5521 79.0209C52.4192 76.1565 53.2361 73.6282 53.5739 72.8531C56.0672 71.8153 58.139 70.0333 59.5332 67.7732L59.2422 69.5806C59.0486 70.781 59.4358 72.0232 60.3344 72.8415C60.7565 73.2249 60.9838 73.7736 60.9591 74.343C60.9337 74.9109 60.6611 75.4343 60.2108 75.7793L57.8754 77.5688C57.5301 77.8329 57.4251 78.3227 57.6612 78.689C57.8218 78.938 58.0868 79.0683 58.3559 79.0683C58.5303 79.0683 58.7067 79.0134 58.8564 78.8982L60.2595 77.8226C60.4229 78.726 60.4284 80.0567 59.492 81.1857C59.2058 81.5307 59.2147 82.0486 59.5442 82.3511C59.7035 82.4979 59.9039 82.5692 60.1023 82.5692C60.3364 82.5692 60.5691 82.4704 60.7325 82.277C62.4693 80.2186 62.0094 77.7671 61.673 76.671C62.2359 76.0584 62.5702 75.2641 62.6073 74.4177C62.6547 73.358 62.2332 72.3394 61.4513 71.624C60.9783 71.1911 60.7586 70.5457 60.8602 69.9119L61.3682 66.7615L62.4954 70.6157C62.7302 71.4168 63.1908 72.0918 63.7874 72.5918C64.2164 73.1152 66.7097 76.3321 65.2784 78.6787C65.0587 79.0388 65.1116 79.5141 65.4384 79.7809C65.5949 79.9085 65.7795 79.9689 65.9621 79.9689C66.236 79.9689 66.5051 79.8317 66.6617 79.5807C67.6104 78.06 67.6001 76.1449 66.6321 74.0432C66.5532 73.8724 66.4708 73.7078 66.3864 73.5487C66.7688 73.55 67.1566 73.4993 67.5417 73.3882C68.7575 73.0335 70.0543 73.6893 70.4929 74.88C71.097 76.5249 72.1062 77.9763 73.3919 79.1135C73.337 79.3234 73.2855 79.5786 73.2567 79.8742C73.1551 80.9381 73.3926 82.0589 73.9425 83.1152C74.0894 83.3978 74.3763 83.5604 74.675 83.5604C74.8178 83.5604 74.9647 83.522 75.0978 83.4431C75.4761 83.216 75.5942 82.7194 75.393 82.3264C74.9599 81.4848 74.8637 80.757 74.885 80.2172C75.647 80.6829 76.4722 81.0533 77.3419 81.3119L77.9481 81.4923C78.0264 81.5156 78.1053 81.5259 78.1829 81.5259C78.5529 81.5259 78.8934 81.2749 78.9847 80.8908C79.0884 80.4586 78.8138 80.0251 78.3888 79.8989L77.8108 79.7274C75.4273 79.0196 73.4462 77.3164 72.3725 75.0927C72.4501 75.1105 72.529 75.127 72.6107 75.1421C73.0226 75.2209 73.4297 75.26 73.8278 75.26C75.2791 75.26 76.6273 74.7422 77.7786 73.7325C78.1225 73.4314 78.1568 72.9087 77.8568 72.5664C77.5568 72.2221 77.0358 72.1878 76.6925 72.4882C74.1141 74.749 71.2089 72.9025 71.0778 72.8168C71.0764 72.8161 71.0744 72.8161 71.073 72.8147C70.0501 71.8119 68.5323 71.3784 67.0811 71.8009C65.7994 72.1734 64.4533 71.4333 64.0784 70.1513L63.9954 69.8653C64.423 70.0175 64.8713 70.0944 65.321 70.0944C65.8324 70.0944 66.3452 69.9956 66.8271 69.7974C67.239 69.6279 67.4621 69.1608 67.3097 68.7424C67.1477 68.2959 66.6486 68.0805 66.2155 68.2616C65.599 68.5202 64.9269 68.5044 64.3228 68.2163C63.7194 67.9282 63.2828 67.4151 63.0947 66.7731L61.9284 62.7996C61.7876 62.3194 61.7156 61.8221 61.7156 61.3214H82.9567C83.4297 61.3214 83.8107 60.9202 83.7805 60.4393C83.7516 59.9997 83.3679 59.6677 82.9285 59.6677" fill="white"/>
<path d="M36.9322 30.7951C36.2478 30.7628 35.6196 30.5783 35.0574 30.258C34.432 29.9123 33.9027 29.4088 33.4675 28.7736L28.2502 21.1839L30.0488 19.9499L35.2647 27.5397C35.7343 28.2208 36.3439 28.5782 37.053 28.6152C37.7223 28.6577 38.4953 28.4225 39.1783 27.9553C39.8449 27.4978 40.3412 26.8592 40.5568 26.2104C40.7772 25.5354 40.6481 24.8495 40.1792 24.167L34.9633 16.5773L36.777 15.333L41.9936 22.9227C42.4295 23.5586 42.6945 24.2424 42.8092 24.9387C42.8908 25.5896 42.8373 26.2412 42.6368 26.8798C42.2812 27.9896 41.498 29.0069 40.4126 29.7518C39.328 30.4967 38.0958 30.8616 36.9322 30.7951Z" fill="white"/>
<path d="M57.2864 23.1054L54.8988 23.7138L50.3268 20.0125L48.7774 20.4063L49.9424 24.9766L47.8301 25.515L44.3832 12.0065L46.1681 11.551L48.3916 10.9851C50.1778 10.5304 51.4018 10.9934 52.1062 11.4735C53.0164 12.0758 53.6775 13.0697 53.9981 14.3269C54.3146 15.565 54.2102 16.7551 53.6988 17.7181C53.4633 18.1654 53.0604 18.7148 52.3972 19.1558L57.2857 23.1061L57.2864 23.1054ZM50.1895 18.0309C51.0641 17.808 51.6551 17.3862 51.9531 16.8059C52.3245 16.1302 52.2208 15.3414 52.0849 14.814C51.9462 14.268 51.6599 13.5265 51.0098 13.1101C50.471 12.7438 49.7543 12.6746 48.879 12.8968L46.9843 13.379L48.2941 18.5131L50.1895 18.0309Z" fill="white"/>
<path d="M67.2781 20.6696C66.8182 22.0023 65.5461 23.0134 64.0098 23.2411C63.7249 23.2836 63.442 23.2891 63.1606 23.2754C62.597 23.2486 62.0375 23.1279 61.5219 22.8961C60.6556 22.4969 59.9128 21.8782 59.2971 21.0022L61.0895 19.7326C61.4588 20.2772 61.9105 20.6758 62.4089 20.8877C62.8146 21.0763 63.2629 21.1353 63.6816 21.0619C64.4017 20.9638 65.0072 20.5228 65.2029 19.9679C65.4212 19.3382 65.0161 18.7538 64.6406 18.3601C64.0482 17.7482 63.0816 16.705 63.0102 16.6268L61.3778 14.9298C60.876 14.3975 60.5458 13.8172 60.3865 13.2074C60.2279 12.6169 60.2382 11.9961 60.4339 11.4412C60.6323 10.8486 61.0146 10.3403 61.5419 9.93285C62.0306 9.56039 62.6265 9.30797 63.2512 9.22498C63.9349 9.10631 64.6468 9.19754 65.3113 9.47328C66.0115 9.78949 66.6273 10.2888 67.1408 10.9727L65.3649 12.2609C64.6928 11.3637 63.9603 11.3287 63.5622 11.3856C63.0686 11.4556 62.6409 11.7547 62.5091 12.1429C62.4212 12.4022 62.4192 12.835 62.9752 13.4262L65.1974 15.7714C65.5193 16.126 65.9134 16.5396 66.2003 16.8353C66.7756 17.4087 67.1593 18.0487 67.3337 18.7147C67.5101 19.3636 67.4964 20.0399 67.2781 20.6696Z" fill="white"/>
<path d="M74.7395 16.8978L79.5558 18.5701L78.9071 20.4344L74.0914 18.7621L72.6711 22.8447L78.5165 24.8757L77.8685 26.7401L72.0052 24.7029L69.9609 23.9929L74.5452 10.8198L76.5889 11.5298L82.4521 13.5669L81.8095 15.4134L75.9635 13.3824L74.7395 16.8978Z" fill="white"/>
<path d="M87.0975 33.0238L82.3601 29.5969L80.6075 28.3307L88.7911 17.0356L90.5574 18.3142L83.5333 28.0097L88.2556 31.4249L87.0975 33.0238Z" fill="white"/>
<path d="M31.5021 98.5772C31.0223 99.08 30.4854 99.4257 29.8779 99.6267C29.2964 99.8002 28.6717 99.8283 28.0306 99.7117C26.9212 99.4861 25.7604 98.8235 24.6167 97.7342L23.7174 96.8782L22.3822 95.6079L32.008 85.509L33.5883 87.0119L34.2419 87.6347C35.3588 88.6972 35.9814 89.6787 36.151 90.6459C36.2443 91.1754 36.1908 91.6947 36.0157 92.1776C35.8537 92.6207 35.5846 93.0391 35.2084 93.4335C34.6894 93.9781 33.8767 94.4768 32.6533 94.5337C32.7131 94.7978 32.746 95.0625 32.7666 95.3417C32.781 95.9261 32.7007 96.4728 32.514 96.9955C32.3019 97.5723 31.9559 98.0991 31.5014 98.5765L31.5021 98.5772ZM30.0852 97.2287C30.5918 96.6978 30.817 96.1072 30.7868 95.4302C30.7765 95.0317 30.6742 94.6222 30.4902 94.188C30.3021 94.1125 30.101 94.0508 29.8992 93.963C29.12 93.6626 28.4322 93.2675 27.9187 92.9609L25.3245 95.6833L25.9787 96.3047C26.8368 97.121 27.6743 97.6334 28.3958 97.7754C29.0775 97.9043 29.6061 97.7328 30.0852 97.2287ZM32.2394 88.429L29.3205 91.4916C29.6994 91.7214 30.1703 91.9622 30.6674 92.1501C31.3655 92.4252 31.9813 92.5692 32.5126 92.5569C33.0584 92.5569 33.4668 92.4005 33.7785 92.0747C34.246 91.5842 34.2501 91.2255 34.2041 90.9738C34.095 90.3256 33.4236 89.5573 32.8936 89.0518L32.2394 88.4297V88.429Z" fill="white"/>
<path d="M41.8845 105.9L37.4306 103.708L35.0457 105.865L32.886 104.802L44.7848 94.4021L43.7695 110.159L41.627 109.104L41.8851 105.9L41.8845 105.9ZM42.0403 103.798L42.3993 99.2399L39.0033 102.303L42.0403 103.798Z" fill="white"/>
<path d="M59.5744 113.074L57.1319 112.745L54.2761 107.601L52.691 107.387L52.0615 112.062L49.8984 111.771L51.7622 97.9497L53.589 98.1946L55.864 98.5005C57.6907 98.7461 58.6525 99.6343 59.1268 100.344C59.7446 101.243 59.9856 102.414 59.8126 103.698C59.6424 104.965 59.1 106.03 58.2653 106.734C57.8795 107.061 57.2994 107.42 56.5182 107.579L59.5744 113.074ZM54.8919 105.711C55.7871 105.832 56.4935 105.661 56.9877 105.234C57.585 104.746 57.7834 103.976 57.8575 103.436C57.9323 102.877 57.944 102.082 57.4978 101.453C57.1346 100.91 56.4962 100.578 55.601 100.457L53.6617 100.197L52.954 105.45L54.8919 105.711Z" fill="white"/>
<path d="M66.3253 103.739L67.99 112.549L65.8461 112.953L63.1338 98.6018L73.532 106.417L71.8707 97.6237L74.0331 97.2156L76.7413 111.549L66.3253 103.739Z" fill="white"/>
<path d="M81.4574 99.8449L85.9031 97.3502L86.8703 99.0712L82.4246 101.566L84.5438 105.336L89.9403 102.307L90.9075 104.028L85.4946 107.066L83.6081 108.125L76.7722 95.9639L78.6586 94.9056L84.0715 91.8669L85.0298 93.5715L79.6334 96.6005L81.4574 99.8449Z" fill="white"/>
<path d="M99.284 92.7916C99.9615 94.0276 99.8551 95.6484 98.9902 96.9373C98.8309 97.1767 98.6449 97.3886 98.4458 97.5882C98.0469 97.9867 97.5808 98.3187 97.0625 98.5451C96.1852 98.9168 95.2269 99.0499 94.1635 98.9175L94.4292 96.7377C95.0806 96.8309 95.6786 96.7644 96.1708 96.5387C96.5833 96.3659 96.9286 96.073 97.1559 95.715C97.5684 95.1175 97.6481 94.3726 97.3687 93.8547C97.0495 93.2696 96.3445 93.177 95.8001 93.1901C94.9488 93.2161 93.5258 93.2299 93.4194 93.2299L91.0647 93.2971C90.3336 93.3101 89.6815 93.164 89.124 92.8718C88.5783 92.5926 88.1266 92.1674 87.8472 91.6488C87.5417 91.1042 87.4216 90.48 87.4751 89.8153C87.528 89.2035 87.7408 88.593 88.1005 88.0745C88.4726 87.4901 89.0176 87.025 89.6698 86.7191C90.3734 86.4139 91.1581 86.2945 92.0093 86.3741L91.7697 88.5532C90.6528 88.4469 90.1338 88.9648 89.908 89.2975C89.6286 89.709 89.562 90.2269 89.7618 90.5856C89.8943 90.8257 90.2142 91.1172 91.0256 91.1049L94.2562 91.0377C94.7346 91.0377 95.3065 91.0239 95.7191 91.0116C96.5305 90.9711 97.2623 91.1172 97.8733 91.4369C98.4719 91.7421 98.9641 92.2072 99.284 92.7922V92.7916Z" fill="white"/>
</g>
<defs>
<clipPath id="clip0_113_33">
<rect width="123" height="121" fill="white"/>
</clipPath>
</defs>
</svg>
