<svg width="553" height="121" viewBox="0 0 553 121" fill="none" xmlns="http://www.w3.org/2000/svg">
<g clip-path="url(#clip0_387_14)">
<path d="M47.9986 120.531C107.914 124.818 109.061 98.6918 116.497 83.6743C129.218 57.9845 122.586 37.5756 102.614 15.7379C84.1934 -4.40422 66.2604 -4.18953 28.0275 10.5722C8.5156 18.1064 -6.25406 41.1828 2.65991 73.1591C2.65991 73.1591 11.0123 118.313 47.9986 120.531Z" fill="#83AA7D"/>
<path d="M13.6474 60.3964C13.7058 59.4533 14.5241 58.7297 15.4673 58.7866C16.4112 58.8442 17.1354 59.6618 17.0771 60.605C17.0201 61.5467 16.2018 62.2718 15.2579 62.2141C14.3154 62.1558 13.5911 61.3382 13.6474 60.3964Z" fill="white"/>
<path d="M109.344 60.3008C109.453 61.2391 108.775 62.0965 107.836 62.2056C106.896 62.3153 106.038 61.6383 105.929 60.7C105.819 59.7616 106.498 58.9042 107.436 58.7945C108.375 58.6854 109.234 59.3624 109.344 60.3008Z" fill="white"/>
<path d="M51.2659 48.1977C49.7728 47.1331 48.7129 45.6214 48.2234 43.8784C51.9346 43.6637 55.323 46.0809 56.3349 49.6628C54.5322 49.7698 52.759 49.2615 51.2659 48.1977ZM67.7738 46.937C68.8152 46.1941 70.0371 45.8162 71.294 45.8388C70.4895 48.2917 68.1644 49.9523 65.5866 49.9097C65.9766 48.7149 66.7331 47.6784 67.7738 46.937ZM82.9258 59.6663H61.7135V59.4098C61.7135 59.3933 61.7128 59.3768 61.7128 59.3604C61.7739 56.4246 62.9018 53.6562 64.8995 51.5217C65.1617 51.5498 65.4233 51.5642 65.6821 51.5642C69.3046 51.5642 72.5146 48.9405 73.1359 45.2455C73.1908 44.9183 73.0466 44.5774 72.7411 44.3942C72.6533 44.3414 72.5537 44.3085 72.4528 44.292C70.4627 43.9573 68.4623 44.4189 66.8189 45.5919C65.2317 46.723 64.1629 48.3877 63.7874 50.2939C62.5229 51.6197 61.557 53.1651 60.9254 54.8422C60.3247 53.1686 58.1575 50.2568 58.1555 50.2431C57.2754 45.0075 52.3087 41.466 47.0832 42.3481C46.8683 42.3838 46.6754 42.5052 46.5484 42.6836C46.4214 42.8626 46.3706 43.0834 46.407 43.3002C46.8333 45.8367 48.2193 48.0543 50.311 49.5455C51.9565 50.7184 53.8828 51.3317 55.8626 51.3317C56.1846 51.3317 56.5086 51.3131 56.8319 51.2802C58.9195 53.4848 60.0653 56.3595 60.0653 59.4098V59.6663H40.0749C39.6362 59.6663 39.2525 59.9983 39.2244 60.438C39.1935 60.9188 39.5731 61.3201 40.0468 61.3201H60.0653C60.0653 61.8338 59.974 62.3434 59.7968 62.8257C59.5209 63.5747 59.0836 64.7476 58.7328 65.6194C58.4239 66.3849 57.8486 67.0125 57.11 67.3802C55.6629 68.1004 53.1332 68.8302 50.4573 67.1552C50.0577 66.9041 49.5257 67.0393 49.2957 67.4604C49.0836 67.848 49.2312 68.3384 49.606 68.5716C50.9556 69.4112 52.4096 69.8351 53.9013 69.8351C54.5199 69.8351 55.1452 69.7617 55.7727 69.6149C54.8562 70.3756 53.8142 70.9929 52.6753 71.4333C50.6007 72.2351 48.8049 73.5507 47.4292 75.2189C46.0116 75.3835 41.0607 76.2231 40.2788 79.9463C40.1847 80.3921 40.4696 80.8311 40.9158 80.9251C40.9728 80.9367 41.0305 80.9429 41.0861 80.9429C41.4685 80.9429 41.811 80.6761 41.8927 80.2872C42.1501 79.0628 43.1977 78.1135 45.0052 77.4666C45.389 77.3295 45.7686 77.2211 46.1208 77.1353C45.5544 78.1505 45.124 79.2514 44.8473 80.4113L44.362 82.4554C44.2563 82.8998 44.5302 83.345 44.973 83.4506C45.0375 83.4657 45.102 83.4739 45.1659 83.4739C45.5393 83.4739 45.8771 83.2181 45.9677 82.8381L46.453 80.7947C47.1567 77.8343 49.0273 75.3211 51.5927 73.7935C51.3257 75.3355 51.4293 77.6045 53.2444 80.0293C53.4064 80.246 53.6542 80.3599 53.9055 80.3599C54.0936 80.3599 54.2844 80.2954 54.4409 80.1609C54.7725 79.8763 54.8137 79.3708 54.5521 79.0209C52.4192 76.1565 53.2361 73.6282 53.5739 72.8531C56.0672 71.8153 58.139 70.0333 59.5332 67.7732L59.2422 69.5806C59.0486 70.781 59.4358 72.0232 60.3344 72.8415C60.7565 73.2249 60.9838 73.7736 60.9591 74.343C60.9337 74.9109 60.6611 75.4343 60.2108 75.7793L57.8754 77.5688C57.5301 77.8329 57.4251 78.3227 57.6612 78.689C57.8218 78.938 58.0868 79.0683 58.3559 79.0683C58.5303 79.0683 58.7067 79.0134 58.8564 78.8982L60.2595 77.8226C60.4229 78.726 60.4284 80.0567 59.492 81.1857C59.2058 81.5307 59.2147 82.0486 59.5442 82.3511C59.7035 82.4979 59.9039 82.5692 60.1023 82.5692C60.3364 82.5692 60.5691 82.4704 60.7325 82.277C62.4693 80.2186 62.0094 77.7671 61.673 76.671C62.2359 76.0584 62.5702 75.2641 62.6073 74.4177C62.6547 73.358 62.2332 72.3394 61.4513 71.624C60.9783 71.1911 60.7586 70.5457 60.8602 69.9119L61.3682 66.7615L62.4954 70.6157C62.7302 71.4168 63.1908 72.0918 63.7874 72.5918C64.2164 73.1152 66.7097 76.3321 65.2784 78.6787C65.0587 79.0388 65.1116 79.5141 65.4384 79.7809C65.5949 79.9085 65.7795 79.9689 65.9621 79.9689C66.236 79.9689 66.5051 79.8317 66.6617 79.5807C67.6104 78.06 67.6001 76.1449 66.6321 74.0432C66.5532 73.8724 66.4708 73.7078 66.3864 73.5487C66.7688 73.55 67.1566 73.4993 67.5417 73.3882C68.7575 73.0335 70.0543 73.6893 70.4929 74.88C71.097 76.5249 72.1062 77.9763 73.3919 79.1135C73.337 79.3234 73.2855 79.5786 73.2567 79.8742C73.1551 80.9381 73.3926 82.0589 73.9425 83.1152C74.0894 83.3978 74.3763 83.5604 74.675 83.5604C74.8178 83.5604 74.9647 83.522 75.0978 83.4431C75.4761 83.216 75.5942 82.7194 75.393 82.3264C74.9599 81.4848 74.8637 80.757 74.885 80.2172C75.647 80.6829 76.4722 81.0533 77.3419 81.3119L77.9481 81.4923C78.0264 81.5156 78.1053 81.5259 78.1829 81.5259C78.5529 81.5259 78.8934 81.2749 78.9847 80.8908C79.0884 80.4586 78.8138 80.0251 78.3888 79.8989L77.8108 79.7274C75.4273 79.0196 73.4462 77.3164 72.3725 75.0927C72.4501 75.1105 72.529 75.127 72.6107 75.1421C73.0226 75.2209 73.4297 75.26 73.8278 75.26C75.2791 75.26 76.6273 74.7422 77.7786 73.7325C78.1225 73.4314 78.1568 72.9087 77.8568 72.5664C77.5568 72.2221 77.0358 72.1878 76.6925 72.4882C74.1141 74.749 71.2089 72.9025 71.0778 72.8168C71.0764 72.8161 71.0744 72.8161 71.073 72.8147C70.0501 71.8119 68.5323 71.3784 67.0811 71.8009C65.7994 72.1734 64.4533 71.4333 64.0784 70.1513L63.9954 69.8653C64.423 70.0175 64.8713 70.0944 65.321 70.0944C65.8324 70.0944 66.3452 69.9956 66.8271 69.7974C67.239 69.6279 67.4621 69.1608 67.3097 68.7424C67.1477 68.2959 66.6486 68.0805 66.2155 68.2616C65.599 68.5202 64.9269 68.5044 64.3228 68.2163C63.7194 67.9282 63.2828 67.4151 63.0947 66.7731L61.9284 62.7996C61.7876 62.3194 61.7156 61.8221 61.7156 61.3214H82.9567C83.4297 61.3214 83.8107 60.9202 83.7805 60.4393C83.7516 59.9997 83.3679 59.6677 82.9285 59.6677" fill="white"/>
<path d="M36.9322 30.7951C36.2478 30.7628 35.6196 30.5783 35.0574 30.258C34.432 29.9123 33.9027 29.4088 33.4675 28.7736L28.2502 21.1839L30.0488 19.9499L35.2647 27.5397C35.7343 28.2208 36.3439 28.5782 37.053 28.6152C37.7223 28.6577 38.4953 28.4225 39.1783 27.9553C39.8449 27.4978 40.3412 26.8592 40.5568 26.2104C40.7772 25.5354 40.6481 24.8495 40.1792 24.167L34.9633 16.5773L36.777 15.333L41.9936 22.9227C42.4295 23.5586 42.6945 24.2424 42.8092 24.9387C42.8908 25.5896 42.8373 26.2412 42.6368 26.8798C42.2812 27.9896 41.498 29.0069 40.4126 29.7518C39.328 30.4967 38.0958 30.8616 36.9322 30.7951Z" fill="white"/>
<path d="M57.2864 23.1054L54.8988 23.7138L50.3268 20.0125L48.7774 20.4063L49.9424 24.9766L47.8301 25.515L44.3832 12.0065L46.1681 11.551L48.3916 10.9851C50.1778 10.5304 51.4018 10.9934 52.1062 11.4735C53.0164 12.0758 53.6775 13.0697 53.9981 14.3269C54.3146 15.565 54.2102 16.7551 53.6988 17.7181C53.4633 18.1654 53.0604 18.7148 52.3972 19.1558L57.2857 23.1061L57.2864 23.1054ZM50.1895 18.0309C51.0641 17.808 51.6551 17.3862 51.9531 16.8059C52.3245 16.1302 52.2208 15.3414 52.0849 14.814C51.9462 14.268 51.6599 13.5265 51.0098 13.1101C50.471 12.7438 49.7543 12.6746 48.879 12.8968L46.9843 13.379L48.2941 18.5131L50.1895 18.0309Z" fill="white"/>
<path d="M67.2781 20.6696C66.8182 22.0023 65.5461 23.0134 64.0098 23.2411C63.7249 23.2836 63.442 23.2891 63.1606 23.2754C62.597 23.2486 62.0375 23.1279 61.5219 22.8961C60.6556 22.4969 59.9128 21.8782 59.2971 21.0022L61.0895 19.7326C61.4588 20.2772 61.9105 20.6758 62.4089 20.8877C62.8146 21.0763 63.2629 21.1353 63.6816 21.0619C64.4017 20.9638 65.0072 20.5228 65.2029 19.9679C65.4212 19.3382 65.0161 18.7538 64.6406 18.3601C64.0482 17.7482 63.0816 16.705 63.0102 16.6268L61.3778 14.9298C60.876 14.3975 60.5458 13.8172 60.3865 13.2074C60.2279 12.6169 60.2382 11.9961 60.4339 11.4412C60.6323 10.8486 61.0146 10.3403 61.5419 9.93285C62.0306 9.56039 62.6265 9.30797 63.2512 9.22498C63.9349 9.10631 64.6468 9.19754 65.3113 9.47328C66.0115 9.78949 66.6273 10.2888 67.1408 10.9727L65.3649 12.2609C64.6928 11.3637 63.9603 11.3287 63.5622 11.3856C63.0686 11.4556 62.6409 11.7547 62.5091 12.1429C62.4212 12.4022 62.4192 12.835 62.9752 13.4262L65.1974 15.7714C65.5193 16.126 65.9134 16.5396 66.2003 16.8353C66.7756 17.4087 67.1593 18.0487 67.3337 18.7147C67.5101 19.3636 67.4964 20.0399 67.2781 20.6696Z" fill="white"/>
<path d="M74.7395 16.8978L79.5558 18.5701L78.9071 20.4344L74.0914 18.7621L72.6711 22.8447L78.5165 24.8757L77.8685 26.7401L72.0052 24.7029L69.9609 23.9929L74.5452 10.8198L76.5889 11.5298L82.4521 13.5669L81.8095 15.4134L75.9635 13.3824L74.7395 16.8978Z" fill="white"/>
<path d="M87.0975 33.0238L82.3601 29.5969L80.6075 28.3307L88.7911 17.0356L90.5574 18.3142L83.5333 28.0097L88.2556 31.4249L87.0975 33.0238Z" fill="white"/>
<path d="M31.5021 98.5772C31.0223 99.08 30.4854 99.4257 29.8779 99.6267C29.2964 99.8002 28.6717 99.8283 28.0306 99.7117C26.9212 99.4861 25.7604 98.8235 24.6167 97.7342L23.7174 96.8782L22.3822 95.6079L32.008 85.509L33.5883 87.0119L34.2419 87.6347C35.3588 88.6972 35.9814 89.6787 36.151 90.6459C36.2443 91.1754 36.1908 91.6947 36.0157 92.1776C35.8537 92.6207 35.5846 93.0391 35.2084 93.4335C34.6894 93.9781 33.8767 94.4768 32.6533 94.5337C32.7131 94.7978 32.746 95.0625 32.7666 95.3417C32.781 95.9261 32.7007 96.4728 32.514 96.9955C32.3019 97.5723 31.9559 98.0991 31.5014 98.5765L31.5021 98.5772ZM30.0852 97.2287C30.5918 96.6978 30.817 96.1072 30.7868 95.4302C30.7765 95.0317 30.6742 94.6222 30.4902 94.188C30.3021 94.1125 30.101 94.0508 29.8992 93.963C29.12 93.6626 28.4322 93.2675 27.9187 92.9609L25.3245 95.6833L25.9787 96.3047C26.8368 97.121 27.6743 97.6334 28.3958 97.7754C29.0775 97.9043 29.6061 97.7328 30.0852 97.2287ZM32.2394 88.429L29.3205 91.4916C29.6994 91.7214 30.1703 91.9622 30.6674 92.1501C31.3655 92.4252 31.9813 92.5692 32.5126 92.5569C33.0584 92.5569 33.4668 92.4005 33.7785 92.0747C34.246 91.5842 34.2501 91.2255 34.2041 90.9738C34.095 90.3256 33.4236 89.5573 32.8936 89.0518L32.2394 88.4297V88.429Z" fill="white"/>
<path d="M41.8845 105.9L37.4306 103.708L35.0457 105.865L32.886 104.802L44.7848 94.4021L43.7695 110.159L41.627 109.104L41.8851 105.9L41.8845 105.9ZM42.0403 103.798L42.3993 99.2399L39.0033 102.303L42.0403 103.798Z" fill="white"/>
<path d="M59.5744 113.074L57.1319 112.745L54.2761 107.601L52.691 107.387L52.0615 112.062L49.8984 111.771L51.7622 97.9497L53.589 98.1946L55.864 98.5005C57.6907 98.7461 58.6525 99.6343 59.1268 100.344C59.7446 101.243 59.9856 102.414 59.8126 103.698C59.6424 104.965 59.1 106.03 58.2653 106.734C57.8795 107.061 57.2994 107.42 56.5182 107.579L59.5744 113.074ZM54.8919 105.711C55.7871 105.832 56.4935 105.661 56.9877 105.234C57.585 104.746 57.7834 103.976 57.8575 103.436C57.9323 102.877 57.944 102.082 57.4978 101.453C57.1346 100.91 56.4962 100.578 55.601 100.457L53.6617 100.197L52.954 105.45L54.8919 105.711Z" fill="white"/>
<path d="M66.3253 103.739L67.99 112.549L65.8461 112.953L63.1338 98.6018L73.532 106.417L71.8707 97.6237L74.0331 97.2156L76.7413 111.549L66.3253 103.739Z" fill="white"/>
<path d="M81.4574 99.8449L85.9031 97.3502L86.8703 99.0712L82.4246 101.566L84.5438 105.336L89.9403 102.307L90.9075 104.028L85.4946 107.066L83.6081 108.125L76.7722 95.9639L78.6586 94.9056L84.0715 91.8669L85.0298 93.5715L79.6334 96.6005L81.4574 99.8449Z" fill="white"/>
<path d="M99.284 92.7916C99.9615 94.0276 99.8551 95.6484 98.9902 96.9373C98.8309 97.1767 98.6449 97.3886 98.4458 97.5882C98.0469 97.9867 97.5808 98.3187 97.0625 98.5451C96.1852 98.9168 95.2269 99.0499 94.1635 98.9175L94.4292 96.7377C95.0806 96.8309 95.6786 96.7644 96.1708 96.5387C96.5833 96.3659 96.9286 96.073 97.1559 95.715C97.5684 95.1175 97.6481 94.3726 97.3687 93.8547C97.0495 93.2696 96.3445 93.177 95.8001 93.1901C94.9488 93.2161 93.5258 93.2299 93.4194 93.2299L91.0647 93.2971C90.3336 93.3101 89.6815 93.164 89.124 92.8718C88.5783 92.5926 88.1266 92.1674 87.8472 91.6488C87.5417 91.1042 87.4216 90.48 87.4751 89.8153C87.528 89.2035 87.7408 88.593 88.1005 88.0745C88.4726 87.4901 89.0176 87.025 89.6698 86.7191C90.3734 86.4139 91.1581 86.2945 92.0093 86.3741L91.7697 88.5532C90.6528 88.4469 90.1338 88.9648 89.908 89.2975C89.6286 89.709 89.562 90.2269 89.7618 90.5856C89.8943 90.8257 90.2142 91.1172 91.0256 91.1049L94.2562 91.0377C94.7346 91.0377 95.3065 91.0239 95.7191 91.0116C96.5305 90.9711 97.2623 91.1172 97.8733 91.4369C98.4719 91.7421 98.9641 92.2072 99.284 92.7922V92.7916Z" fill="white"/>
</g>
<g filter="url(#filter0_d_387_14)">
<path d="M173.24 60.552C172.784 61.632 172.16 62.568 171.344 63.384C171.272 63.456 171.224 63.504 171.152 63.576L172.76 65.688L170.744 67.2L169.112 65.016C168.92 65.112 168.704 65.208 168.512 65.304C167.408 65.76 166.232 66 165.032 66C163.832 66 162.656 65.76 161.576 65.304C160.496 64.848 159.56 64.2 158.744 63.384C157.928 62.568 157.28 61.632 156.824 60.552C156.368 59.472 156.128 58.296 156.128 57.096C156.128 55.896 156.368 54.72 156.824 53.616C157.28 52.56 157.928 51.6 158.744 50.784C159.56 49.968 160.496 49.344 161.576 48.888C162.656 48.408 163.832 48.192 165.032 48.192C166.232 48.192 167.408 48.408 168.512 48.888C169.568 49.344 170.528 49.968 171.344 50.784C172.16 51.6 172.784 52.56 173.24 53.616C173.72 54.72 173.936 55.896 173.936 57.096C173.936 58.296 173.72 59.472 173.24 60.552ZM165.032 63.216C165.872 63.216 166.664 63.048 167.408 62.736L166.16 61.08L168.176 59.568L169.472 61.32C170.552 60.168 171.152 58.68 171.152 57.096C171.152 55.464 170.504 53.928 169.352 52.776C168.2 51.624 166.664 50.976 165.032 50.976C163.4 50.976 161.864 51.624 160.712 52.776C159.56 53.928 158.912 55.464 158.912 57.096C158.912 58.728 159.56 60.264 160.712 61.416C161.864 62.568 163.4 63.216 165.032 63.216ZM179.953 66H177.169V48.192H179.953V66ZM204.585 56.76V59.28V64.104L203.961 64.536C203.937 64.536 203.937 64.536 203.913 64.56C203.889 64.584 203.841 64.608 203.817 64.608C203.793 64.632 203.769 64.656 203.745 64.656C203.721 64.68 203.697 64.704 203.649 64.704C203.625 64.728 203.601 64.752 203.553 64.776C203.529 64.8 203.505 64.8 203.481 64.824C203.457 64.848 203.433 64.848 203.409 64.872C203.361 64.896 203.337 64.896 203.289 64.92C203.265 64.944 203.241 64.944 203.217 64.968C203.193 64.992 203.145 65.016 203.097 65.016C203.073 65.04 203.073 65.04 203.049 65.064C203.025 65.064 203.025 65.064 203.001 65.064C202.977 65.088 202.929 65.112 202.881 65.136C202.833 65.16 202.761 65.184 202.713 65.208C202.713 65.208 202.713 65.208 202.689 65.232C201.681 65.688 200.625 65.928 199.497 66C199.497 66 199.497 66 199.473 66C199.425 66 199.353 66 199.281 66H199.257C199.185 66 199.113 66 199.041 66C198.081 66 197.121 65.856 196.233 65.544C196.209 65.544 196.209 65.544 196.209 65.544C196.113 65.52 196.041 65.472 195.945 65.448C195.825 65.4 195.705 65.352 195.585 65.304C195.273 65.184 194.985 65.04 194.721 64.872C194.001 64.488 193.329 63.984 192.753 63.384C191.937 62.568 191.289 61.632 190.833 60.552C190.497 59.736 190.257 58.872 190.185 57.984C190.161 57.696 190.137 57.384 190.137 57.096C190.137 56.952 190.137 56.784 190.137 56.64C190.209 55.608 190.425 54.576 190.833 53.616C191.289 52.56 191.937 51.6 192.753 50.784C193.569 49.968 194.505 49.32 195.585 48.888C196.665 48.408 197.841 48.192 199.041 48.192C199.113 48.192 199.185 48.192 199.257 48.192H199.281C199.353 48.192 199.425 48.192 199.473 48.192C199.497 48.192 199.497 48.192 199.497 48.192C199.569 48.192 199.641 48.192 199.713 48.216C200.745 48.288 201.753 48.528 202.713 48.96C202.713 48.96 202.713 48.984 202.737 48.984C202.785 49.008 202.833 49.032 202.881 49.056C202.905 49.056 202.905 49.056 202.905 49.056V52.344C202.545 52.032 202.137 51.792 201.705 51.576C201.345 51.408 200.961 51.264 200.601 51.168C200.577 51.168 200.553 51.168 200.529 51.144C200.505 51.144 200.481 51.144 200.457 51.144C200.433 51.12 200.409 51.12 200.361 51.12C200.361 51.12 200.337 51.12 200.313 51.096C200.217 51.072 200.097 51.072 200.001 51.048C199.977 51.048 199.977 51.048 199.953 51.048C199.929 51.048 199.881 51.024 199.857 51.024C199.833 51.024 199.833 51.024 199.809 51.024C199.785 51.024 199.737 51.024 199.713 51C199.689 51 199.665 51 199.641 51C199.593 51 199.545 51 199.497 51C199.473 51 199.449 50.976 199.425 50.976C199.401 50.976 199.377 50.976 199.353 50.976C199.329 50.976 199.281 50.976 199.257 50.976C199.233 50.976 199.209 50.976 199.209 50.976C199.161 50.976 199.089 50.976 199.041 50.976C197.913 50.976 196.833 51.264 195.897 51.84C195.873 51.864 195.825 51.888 195.777 51.912C195.393 52.152 195.033 52.44 194.721 52.776C194.625 52.872 194.505 52.968 194.409 53.088C194.409 53.088 194.409 53.112 194.385 53.112C194.265 53.256 194.169 53.4 194.073 53.544C194.049 53.568 194.025 53.592 194.025 53.592C193.977 53.664 193.929 53.736 193.881 53.808C193.857 53.832 193.833 53.88 193.833 53.904C193.473 54.48 193.233 55.08 193.089 55.728C193.065 55.752 193.065 55.752 193.065 55.776C193.017 56.016 192.969 56.256 192.945 56.496C192.945 56.592 192.945 56.688 192.945 56.76C192.921 56.88 192.921 56.976 192.921 57.096C192.921 57.192 192.921 57.288 192.945 57.408C192.969 57.864 193.041 58.32 193.161 58.752C193.449 59.76 193.977 60.672 194.721 61.416C195.873 62.568 197.409 63.216 199.041 63.216C199.089 63.216 199.161 63.216 199.209 63.216C199.233 63.216 199.257 63.216 199.281 63.192C199.305 63.192 199.353 63.192 199.377 63.192C199.401 63.192 199.425 63.192 199.449 63.192C199.473 63.192 199.497 63.192 199.521 63.192C199.569 63.192 199.593 63.192 199.641 63.192C199.641 63.168 199.665 63.168 199.689 63.168C199.713 63.168 199.761 63.168 199.785 63.168C199.809 63.168 199.809 63.168 199.833 63.168C200.001 63.144 200.193 63.096 200.361 63.072C200.385 63.072 200.385 63.072 200.409 63.048C200.433 63.048 200.481 63.048 200.505 63.024C200.529 63.024 200.553 63.024 200.577 63.024C200.601 63 200.625 63 200.649 63C200.673 62.976 200.721 62.976 200.745 62.976C200.769 62.976 200.793 62.952 200.793 62.952C201.129 62.856 201.465 62.736 201.777 62.568C201.777 62.568 201.777 62.568 201.801 62.568V59.28H198.441V56.76H204.585ZM216.2 66C215 66 213.824 65.76 212.744 65.304C211.664 64.848 210.728 64.2 209.912 63.384C209.096 62.568 208.448 61.632 207.992 60.552C207.536 59.472 207.296 58.296 207.296 57.096C207.296 55.896 207.536 54.72 207.992 53.616C208.448 52.56 209.096 51.624 209.912 50.784C210.728 49.968 211.664 49.344 212.744 48.888C213.824 48.432 215 48.192 216.2 48.192C217.4 48.192 218.576 48.432 219.68 48.888C220.736 49.344 221.672 49.968 222.512 50.784C223.328 51.624 223.952 52.56 224.408 53.616C224.864 54.72 225.104 55.896 225.104 57.096C225.104 58.296 224.864 59.472 224.408 60.552C223.952 61.632 223.328 62.568 222.512 63.384C221.672 64.2 220.736 64.848 219.68 65.304C218.576 65.76 217.4 66 216.2 66ZM216.2 50.976C214.568 50.976 213.032 51.624 211.88 52.776C210.728 53.928 210.08 55.464 210.08 57.096C210.08 58.728 210.728 60.264 211.88 61.416C213.032 62.568 214.568 63.216 216.2 63.216C217.832 63.216 219.368 62.568 220.52 61.416C221.672 60.264 222.32 58.728 222.32 57.096C222.32 55.464 221.672 53.928 220.52 52.776C219.368 51.624 217.832 50.976 216.2 50.976ZM242.231 66.816L231.023 54.552V66H228.239V47.352L239.423 59.616V48.192H242.231V66.816ZM259.71 56.76V59.28V64.104L259.086 64.536C259.062 64.536 259.062 64.536 259.038 64.56C259.014 64.584 258.966 64.608 258.942 64.608C258.918 64.632 258.894 64.656 258.87 64.656C258.846 64.68 258.822 64.704 258.774 64.704C258.75 64.728 258.726 64.752 258.678 64.776C258.654 64.8 258.63 64.8 258.606 64.824C258.582 64.848 258.558 64.848 258.534 64.872C258.486 64.896 258.462 64.896 258.414 64.92C258.39 64.944 258.366 64.944 258.342 64.968C258.318 64.992 258.27 65.016 258.222 65.016C258.198 65.04 258.198 65.04 258.174 65.064C258.15 65.064 258.15 65.064 258.126 65.064C258.102 65.088 258.054 65.112 258.006 65.136C257.958 65.16 257.886 65.184 257.838 65.208C257.838 65.208 257.838 65.208 257.814 65.232C256.806 65.688 255.75 65.928 254.622 66C254.622 66 254.622 66 254.598 66C254.55 66 254.478 66 254.406 66H254.382C254.31 66 254.238 66 254.166 66C253.206 66 252.246 65.856 251.358 65.544C251.334 65.544 251.334 65.544 251.334 65.544C251.238 65.52 251.166 65.472 251.07 65.448C250.95 65.4 250.83 65.352 250.71 65.304C250.398 65.184 250.11 65.04 249.846 64.872C249.126 64.488 248.454 63.984 247.878 63.384C247.062 62.568 246.414 61.632 245.958 60.552C245.622 59.736 245.382 58.872 245.31 57.984C245.286 57.696 245.262 57.384 245.262 57.096C245.262 56.952 245.262 56.784 245.262 56.64C245.334 55.608 245.55 54.576 245.958 53.616C246.414 52.56 247.062 51.6 247.878 50.784C248.694 49.968 249.63 49.32 250.71 48.888C251.79 48.408 252.966 48.192 254.166 48.192C254.238 48.192 254.31 48.192 254.382 48.192H254.406C254.478 48.192 254.55 48.192 254.598 48.192C254.622 48.192 254.622 48.192 254.622 48.192C254.694 48.192 254.766 48.192 254.838 48.216C255.87 48.288 256.878 48.528 257.838 48.96C257.838 48.96 257.838 48.984 257.862 48.984C257.91 49.008 257.958 49.032 258.006 49.056C258.03 49.056 258.03 49.056 258.03 49.056V52.344C257.67 52.032 257.262 51.792 256.83 51.576C256.47 51.408 256.086 51.264 255.726 51.168C255.702 51.168 255.678 51.168 255.654 51.144C255.63 51.144 255.606 51.144 255.582 51.144C255.558 51.12 255.534 51.12 255.486 51.12C255.486 51.12 255.462 51.12 255.438 51.096C255.342 51.072 255.222 51.072 255.126 51.048C255.102 51.048 255.102 51.048 255.078 51.048C255.054 51.048 255.006 51.024 254.982 51.024C254.958 51.024 254.958 51.024 254.934 51.024C254.91 51.024 254.862 51.024 254.838 51C254.814 51 254.79 51 254.766 51C254.718 51 254.67 51 254.622 51C254.598 51 254.574 50.976 254.55 50.976C254.526 50.976 254.502 50.976 254.478 50.976C254.454 50.976 254.406 50.976 254.382 50.976C254.358 50.976 254.334 50.976 254.334 50.976C254.286 50.976 254.214 50.976 254.166 50.976C253.038 50.976 251.958 51.264 251.022 51.84C250.998 51.864 250.95 51.888 250.902 51.912C250.518 52.152 250.158 52.44 249.846 52.776C249.75 52.872 249.63 52.968 249.534 53.088C249.534 53.088 249.534 53.112 249.51 53.112C249.39 53.256 249.294 53.4 249.198 53.544C249.174 53.568 249.15 53.592 249.15 53.592C249.102 53.664 249.054 53.736 249.006 53.808C248.982 53.832 248.958 53.88 248.958 53.904C248.598 54.48 248.358 55.08 248.214 55.728C248.19 55.752 248.19 55.752 248.19 55.776C248.142 56.016 248.094 56.256 248.07 56.496C248.07 56.592 248.07 56.688 248.07 56.76C248.046 56.88 248.046 56.976 248.046 57.096C248.046 57.192 248.046 57.288 248.07 57.408C248.094 57.864 248.166 58.32 248.286 58.752C248.574 59.76 249.102 60.672 249.846 61.416C250.998 62.568 252.534 63.216 254.166 63.216C254.214 63.216 254.286 63.216 254.334 63.216C254.358 63.216 254.382 63.216 254.406 63.192C254.43 63.192 254.478 63.192 254.502 63.192C254.526 63.192 254.55 63.192 254.574 63.192C254.598 63.192 254.622 63.192 254.646 63.192C254.694 63.192 254.718 63.192 254.766 63.192C254.766 63.168 254.79 63.168 254.814 63.168C254.838 63.168 254.886 63.168 254.91 63.168C254.934 63.168 254.934 63.168 254.958 63.168C255.126 63.144 255.318 63.096 255.486 63.072C255.51 63.072 255.51 63.072 255.534 63.048C255.558 63.048 255.606 63.048 255.63 63.024C255.654 63.024 255.678 63.024 255.702 63.024C255.726 63 255.75 63 255.774 63C255.798 62.976 255.846 62.976 255.87 62.976C255.894 62.976 255.918 62.952 255.918 62.952C256.254 62.856 256.59 62.736 256.902 62.568C256.902 62.568 256.902 62.568 256.926 62.568V59.28H253.566V56.76H259.71ZM274.416 57.096C274.416 58.416 273.336 59.496 272.016 59.496C270.696 59.496 269.616 58.416 269.616 57.096C269.616 55.776 270.696 54.696 272.016 54.696C273.336 54.696 274.416 55.776 274.416 57.096ZM297.827 60.744V64.536C297.371 64.824 296.891 65.088 296.387 65.304C295.283 65.76 294.107 66 292.907 66C291.707 66 290.531 65.76 289.451 65.304C288.371 64.848 287.435 64.2 286.619 63.384C285.803 62.568 285.155 61.632 284.699 60.552C284.243 59.472 284.003 58.296 284.003 57.096C284.003 55.896 284.243 54.72 284.699 53.616C285.155 52.56 285.803 51.6 286.619 50.784C287.435 49.968 288.371 49.32 289.451 48.888C290.531 48.408 291.707 48.192 292.907 48.192C294.107 48.192 295.283 48.408 296.387 48.888C296.507 48.936 296.651 49.008 296.771 49.056V52.344C295.691 51.456 294.347 50.976 292.907 50.976C291.275 50.976 289.739 51.6 288.587 52.776C287.435 53.928 286.787 55.464 286.787 57.096C286.787 58.728 287.435 60.264 288.587 61.416C289.739 62.568 291.275 63.216 292.907 63.216C294.539 63.216 296.075 62.568 297.227 61.416C297.443 61.2 297.635 60.984 297.827 60.744ZM309.317 66C308.117 66 306.941 65.76 305.861 65.304C304.781 64.848 303.845 64.2 303.029 63.384C302.213 62.568 301.565 61.632 301.109 60.552C300.653 59.472 300.413 58.296 300.413 57.096C300.413 55.896 300.653 54.72 301.109 53.616C301.565 52.56 302.213 51.624 303.029 50.784C303.845 49.968 304.781 49.344 305.861 48.888C306.941 48.432 308.117 48.192 309.317 48.192C310.517 48.192 311.693 48.432 312.797 48.888C313.853 49.344 314.789 49.968 315.629 50.784C316.445 51.624 317.069 52.56 317.525 53.616C317.981 54.72 318.221 55.896 318.221 57.096C318.221 58.296 317.981 59.472 317.525 60.552C317.069 61.632 316.445 62.568 315.629 63.384C314.789 64.2 313.853 64.848 312.797 65.304C311.693 65.76 310.517 66 309.317 66ZM309.317 50.976C307.685 50.976 306.149 51.624 304.997 52.776C303.845 53.928 303.197 55.464 303.197 57.096C303.197 58.728 303.845 60.264 304.997 61.416C306.149 62.568 307.685 63.216 309.317 63.216C310.949 63.216 312.485 62.568 313.637 61.416C314.789 60.264 315.437 58.728 315.437 57.096C315.437 55.464 314.789 53.928 313.637 52.776C312.485 51.624 310.949 50.976 309.317 50.976ZM330.993 66L329.481 62.184H323.145L321.633 66H318.561L326.313 47.376L334.041 66H330.993ZM324.153 59.688H328.473L326.313 54.264L324.153 59.688ZM348.405 60.744V64.536C347.949 64.824 347.469 65.088 346.965 65.304C345.861 65.76 344.685 66 343.485 66C342.285 66 341.109 65.76 340.029 65.304C338.949 64.848 338.013 64.2 337.197 63.384C336.381 62.568 335.733 61.632 335.277 60.552C334.821 59.472 334.581 58.296 334.581 57.096C334.581 55.896 334.821 54.72 335.277 53.616C335.733 52.56 336.381 51.6 337.197 50.784C338.013 49.968 338.949 49.32 340.029 48.888C341.109 48.408 342.285 48.192 343.485 48.192C344.685 48.192 345.861 48.408 346.965 48.888C347.085 48.936 347.229 49.008 347.349 49.056V52.344C346.269 51.456 344.925 50.976 343.485 50.976C341.853 50.976 340.317 51.6 339.165 52.776C338.013 53.928 337.365 55.464 337.365 57.096C337.365 58.728 338.013 60.264 339.165 61.416C340.317 62.568 341.853 63.216 343.485 63.216C345.117 63.216 346.653 62.568 347.805 61.416C348.021 61.2 348.213 60.984 348.405 60.744ZM363.771 48.192V66H360.987V58.32H353.883V66H351.099V48.192H353.883V55.8H360.987V48.192H363.771ZM370.265 66H367.481V48.192H370.265V66ZM387.942 66.816L376.734 54.552V66H373.95V47.352L385.134 59.616V48.192H387.942V66.816ZM405.421 56.76V59.28V64.104L404.797 64.536C404.773 64.536 404.773 64.536 404.749 64.56C404.725 64.584 404.677 64.608 404.653 64.608C404.629 64.632 404.605 64.656 404.581 64.656C404.557 64.68 404.533 64.704 404.485 64.704C404.461 64.728 404.437 64.752 404.389 64.776C404.365 64.8 404.341 64.8 404.317 64.824C404.293 64.848 404.269 64.848 404.245 64.872C404.197 64.896 404.173 64.896 404.125 64.92C404.101 64.944 404.077 64.944 404.053 64.968C404.029 64.992 403.981 65.016 403.933 65.016C403.909 65.04 403.909 65.04 403.885 65.064C403.861 65.064 403.861 65.064 403.837 65.064C403.813 65.088 403.765 65.112 403.717 65.136C403.669 65.16 403.597 65.184 403.549 65.208C403.549 65.208 403.549 65.208 403.525 65.232C402.517 65.688 401.461 65.928 400.333 66C400.333 66 400.333 66 400.309 66C400.261 66 400.189 66 400.117 66H400.093C400.021 66 399.949 66 399.877 66C398.917 66 397.957 65.856 397.069 65.544C397.045 65.544 397.045 65.544 397.045 65.544C396.949 65.52 396.877 65.472 396.781 65.448C396.661 65.4 396.541 65.352 396.421 65.304C396.109 65.184 395.821 65.04 395.557 64.872C394.837 64.488 394.165 63.984 393.589 63.384C392.773 62.568 392.125 61.632 391.669 60.552C391.333 59.736 391.093 58.872 391.021 57.984C390.997 57.696 390.973 57.384 390.973 57.096C390.973 56.952 390.973 56.784 390.973 56.64C391.045 55.608 391.261 54.576 391.669 53.616C392.125 52.56 392.773 51.6 393.589 50.784C394.405 49.968 395.341 49.32 396.421 48.888C397.501 48.408 398.677 48.192 399.877 48.192C399.949 48.192 400.021 48.192 400.093 48.192H400.117C400.189 48.192 400.261 48.192 400.309 48.192C400.333 48.192 400.333 48.192 400.333 48.192C400.405 48.192 400.477 48.192 400.549 48.216C401.581 48.288 402.589 48.528 403.549 48.96C403.549 48.96 403.549 48.984 403.573 48.984C403.621 49.008 403.669 49.032 403.717 49.056C403.741 49.056 403.741 49.056 403.741 49.056V52.344C403.381 52.032 402.973 51.792 402.541 51.576C402.181 51.408 401.797 51.264 401.437 51.168C401.413 51.168 401.389 51.168 401.365 51.144C401.341 51.144 401.317 51.144 401.293 51.144C401.269 51.12 401.245 51.12 401.197 51.12C401.197 51.12 401.173 51.12 401.149 51.096C401.053 51.072 400.933 51.072 400.837 51.048C400.813 51.048 400.813 51.048 400.789 51.048C400.765 51.048 400.717 51.024 400.693 51.024C400.669 51.024 400.669 51.024 400.645 51.024C400.621 51.024 400.573 51.024 400.549 51C400.525 51 400.501 51 400.477 51C400.429 51 400.381 51 400.333 51C400.309 51 400.285 50.976 400.261 50.976C400.237 50.976 400.213 50.976 400.189 50.976C400.165 50.976 400.117 50.976 400.093 50.976C400.069 50.976 400.045 50.976 400.045 50.976C399.997 50.976 399.925 50.976 399.877 50.976C398.749 50.976 397.669 51.264 396.733 51.84C396.709 51.864 396.661 51.888 396.613 51.912C396.229 52.152 395.869 52.44 395.557 52.776C395.461 52.872 395.341 52.968 395.245 53.088C395.245 53.088 395.245 53.112 395.221 53.112C395.101 53.256 395.005 53.4 394.909 53.544C394.885 53.568 394.861 53.592 394.861 53.592C394.813 53.664 394.765 53.736 394.717 53.808C394.693 53.832 394.669 53.88 394.669 53.904C394.309 54.48 394.069 55.08 393.925 55.728C393.901 55.752 393.901 55.752 393.901 55.776C393.853 56.016 393.805 56.256 393.781 56.496C393.781 56.592 393.781 56.688 393.781 56.76C393.757 56.88 393.757 56.976 393.757 57.096C393.757 57.192 393.757 57.288 393.781 57.408C393.805 57.864 393.877 58.32 393.997 58.752C394.285 59.76 394.813 60.672 395.557 61.416C396.709 62.568 398.245 63.216 399.877 63.216C399.925 63.216 399.997 63.216 400.045 63.216C400.069 63.216 400.093 63.216 400.117 63.192C400.141 63.192 400.189 63.192 400.213 63.192C400.237 63.192 400.261 63.192 400.285 63.192C400.309 63.192 400.333 63.192 400.357 63.192C400.405 63.192 400.429 63.192 400.477 63.192C400.477 63.168 400.501 63.168 400.525 63.168C400.549 63.168 400.597 63.168 400.621 63.168C400.645 63.168 400.645 63.168 400.669 63.168C400.837 63.144 401.029 63.096 401.197 63.072C401.221 63.072 401.221 63.072 401.245 63.048C401.269 63.048 401.317 63.048 401.341 63.024C401.365 63.024 401.389 63.024 401.413 63.024C401.437 63 401.461 63 401.485 63C401.509 62.976 401.557 62.976 401.581 62.976C401.605 62.976 401.629 62.952 401.629 62.952C401.965 62.856 402.301 62.736 402.613 62.568C402.613 62.568 402.613 62.568 402.637 62.568V59.28H399.277V56.76H405.421ZM420.127 57.096C420.127 58.416 419.047 59.496 417.727 59.496C416.407 59.496 415.327 58.416 415.327 57.096C415.327 55.776 416.407 54.696 417.727 54.696C419.047 54.696 420.127 55.776 420.127 57.096ZM438.114 59.568L442.914 66H439.77L435.282 59.976H433.242V66H430.458V48.192H432.81H435.738C438.09 48.192 439.458 49.152 440.178 49.968C441.114 51 441.618 52.44 441.618 54.096C441.618 55.728 441.114 57.168 440.178 58.2C439.746 58.68 439.074 59.232 438.114 59.568ZM433.242 57.48H435.738C436.89 57.48 437.754 57.144 438.306 56.52C438.978 55.8 439.098 54.792 439.098 54.096C439.098 53.376 438.978 52.368 438.306 51.648C437.754 51.024 436.89 50.712 435.738 50.712H433.242V57.48ZM448.617 50.688V55.44H455.121V57.96H448.617V63.48H456.513V66H448.593H445.833V48.192H448.593H456.513V50.688H448.617ZM471.25 48.192V50.688H466.354V66H463.546V50.688H458.65V48.192H471.25ZM481.473 59.568L486.273 66H483.129L478.641 59.976H476.601V66H473.817V48.192H476.169H479.097C481.449 48.192 482.817 49.152 483.537 49.968C484.473 51 484.977 52.44 484.977 54.096C484.977 55.728 484.473 57.168 483.537 58.2C483.105 58.68 482.433 59.232 481.473 59.568ZM476.601 57.48H479.097C480.249 57.48 481.113 57.144 481.665 56.52C482.337 55.8 482.457 54.792 482.457 54.096C482.457 53.376 482.337 52.368 481.665 51.648C481.113 51.024 480.249 50.712 479.097 50.712H476.601V57.48ZM491.226 50.688V55.44H497.73V57.96H491.226V63.48H499.122V66H491.202H488.442V48.192H491.202H499.122V50.688H491.226ZM513.571 66L512.059 62.184H505.723L504.211 66H501.139L508.891 47.376L516.619 66H513.571ZM506.731 59.688H511.051L508.891 54.264L506.731 59.688ZM528.109 48.192V50.688H523.213V66H520.405V50.688H515.509V48.192H528.109ZM539.709 59.928C539.973 60.744 539.997 61.608 539.757 62.424C539.253 64.152 537.693 65.52 535.749 65.904C535.389 65.976 535.029 66 534.669 66C533.949 66 533.229 65.88 532.557 65.616C531.429 65.16 530.445 64.416 529.605 63.336L531.813 61.608C532.317 62.28 532.917 62.76 533.565 63C534.093 63.216 534.669 63.264 535.197 63.144C536.109 62.976 536.853 62.376 537.069 61.656C537.309 60.84 536.757 60.12 536.253 59.64C535.461 58.896 534.165 57.624 534.069 57.528L531.885 55.464C531.213 54.816 530.757 54.096 530.517 53.328C530.277 52.584 530.253 51.792 530.469 51.072C530.685 50.304 531.141 49.632 531.789 49.08C532.389 48.576 533.133 48.216 533.925 48.072C534.789 47.88 535.701 47.952 536.565 48.264C537.477 48.624 538.293 49.224 538.989 50.064L536.805 51.816C535.893 50.712 534.957 50.712 534.453 50.808C533.829 50.928 533.301 51.336 533.157 51.84C533.061 52.176 533.085 52.728 533.829 53.448L536.805 56.304C537.237 56.736 537.765 57.24 538.149 57.6C538.917 58.296 539.445 59.088 539.709 59.928Z" fill="white"/>
</g>
<defs>
<filter id="filter0_d_387_14" x="152.128" y="47.3521" width="391.869" height="27.8479" filterUnits="userSpaceOnUse" color-interpolation-filters="sRGB">
<feFlood flood-opacity="0" result="BackgroundImageFix"/>
<feColorMatrix in="SourceAlpha" type="matrix" values="0 0 0 0 0 0 0 0 0 0 0 0 0 0 0 0 0 0 127 0" result="hardAlpha"/>
<feOffset dy="4"/>
<feGaussianBlur stdDeviation="2"/>
<feComposite in2="hardAlpha" operator="out"/>
<feColorMatrix type="matrix" values="0 0 0 0 0 0 0 0 0 0 0 0 0 0 0 0 0 0 0.25 0"/>
<feBlend mode="normal" in2="BackgroundImageFix" result="effect1_dropShadow_387_14"/>
<feBlend mode="normal" in="SourceGraphic" in2="effect1_dropShadow_387_14" result="shape"/>
</filter>
<clipPath id="clip0_387_14">
<rect width="123" height="121" fill="white"/>
</clipPath>
</defs>
</svg>
