<svg width="71" height="71" viewBox="0 0 71 71" fill="none" xmlns="http://www.w3.org/2000/svg">
<g style="mix-blend-mode:multiply">
<path d="M26.625 51.475L51.475 35.5L26.625 19.525V51.475ZM35.5 71C30.5892 71 25.9742 70.0675 21.655 68.2026C17.3358 66.3377 13.5787 63.8089 10.3837 60.6162C7.18875 57.4212 4.65997 53.6642 2.7974 49.345C0.934834 45.0258 0.00236667 40.4108 0 35.5C0 30.5892 0.932467 25.9742 2.7974 21.655C4.66233 17.3358 7.19112 13.5787 10.3837 10.3837C13.5787 7.18875 17.3358 4.65997 21.655 2.7974C25.9742 0.934834 30.5892 0.00236667 35.5 0C40.4108 0 45.0258 0.932467 49.345 2.7974C53.6642 4.66233 57.4212 7.19112 60.6162 10.3837C63.8112 13.5787 66.3412 17.3358 68.2061 21.655C70.0711 25.9742 71.0024 30.5892 71 35.5C71 40.4108 70.0675 45.0258 68.2026 49.345C66.3377 53.6642 63.8089 57.4212 60.6162 60.6162C57.4212 63.8112 53.6642 66.3412 49.345 68.2061C45.0258 70.0711 40.4108 71.0024 35.5 71Z" fill="black" fill-opacity="0.65"/>
</g>
</svg>
